# xmcd
#
# Track frame offsets: 
#        150
#        14268
#        29625
#        44702
#        57451
#        74880
#        93696
#        106896
#        127194
#        141942
#        155655
#        169515
#        192747
#        209340
#        225457
#        245392
#        265437
#        278685
#        292539
#        303934
#        316498
#
# Disc length: 4410 seconds
#
# Revision: 0
# Processed by: cddbd v1.5.2PL0 Copyright (c) Steve Scherf et al.
# Submitted via: ExactAudioCopy v1.1
#
DISCID=46113815
DTITLE=Various Artist - MNM Party 2019 Volume 1 - CD 2 - Hottest Party Flashb
DTITLE=acks
DYEAR=2019
DGENRE=Top 40
TTITLE0=David Guetta Feat. Kelly Rowland - When Love Takes Over
TTITLE1=Swedish House Mafia Vs. Tinie Tempah - Miami 2 Ibiza
TTITLE2=Moby - Disco Lies
TTITLE3=Bingo Players - Rattle
TTITLE4=The Supermen Lovers - Starlight
TTITLE5=Netsky - Love Has Gone
TTITLE6=Dizzee Rascal - Bonkers
TTITLE7=DMX - Party Up
TTITLE8=Bob Sinclar and Cutee-B Feat. Dollarman and Big Ali and Makedah - Ro
TTITLE8=ck This Party (Everybody Dance Now)
TTITLE9=Basto - Again And Again
TTITLE10=Secondcity - I Wanna Feel
TTITLE11=Stereo MC's - Connected
TTITLE12=Danzel - Pump It Up
TTITLE13=Sak Noel - Loca People
TTITLE14=Elvis Crespo - Suavemente
TTITLE15=The Chemical Brothers - Galvanize
TTITLE16=Fake Blood - Mars
TTITLE17=Laurent Wery Feat. Swift K.I.D. and Dev - Hey Hey Hey (Pop Anot
TTITLE17=her Bottle)
TTITLE18=Daniel Bedingfield - Gotta Get Thru This
TTITLE19=Yelle - A Cause Des Garçons
TTITLE20=Sigma - Nobody To Love
EXTD=
EXTT0=
EXTT1=
EXTT2=
EXTT3=
EXTT4=
EXTT5=
EXTT6=
EXTT7=
EXTT8=
EXTT9=
EXTT10=
EXTT11=
EXTT12=
EXTT13=
EXTT14=
EXTT15=
EXTT16=
EXTT17=
EXTT18=
EXTT19=
EXTT20=
PLAYORDER=
